# xmcd
#
# Track frame offsets: 
#        150
#        12225
#        22426
#        30524
#        39650
#        49427
#        59579
#        68637
#        79681
#        89434
#        98841
#        108329
#        119121
#        126883
#        138659
#        150559
#        161864
#        171669
#
# Disc length: 2432 seconds
#
# Revision: 7
# Processed by: cddbd v1.5.2PL0 Copyright (c) Steve Scherf et al.
# Submitted via: ExactAudioCopy v1.0b3
#
DISCID=09097e12
DTITLE=Cash, Johnny - Walking The Line - The Legendary Sun Recordings 
DTITLE=[Disc 3]
DYEAR=2005
DGENRE=Country
TTITLE0=Goodnight Irene
TTITLE1=Goodbye Little Darlin', Goodbye
TTITLE2=The Wreck Of The Old '97
TTITLE3=Blue Train
TTITLE4=Rock Island Line
TTITLE5=I Was There When It Happened
TTITLE6=Remember Me (I'm The One Who Loves You)
TTITLE7=I Love You Because
TTITLE8=Born To Lose
TTITLE9=New Mexico
TTITLE10=Down The Street To 301
TTITLE11=Fools Hall Of Fame
TTITLE12=If The Good Lord's Willing
TTITLE13=Doin' My Time
TTITLE14=Thanks A Lot
TTITLE15=Oh Lonesome Me
TTITLE16=Story Of A Broken Heart
TTITLE17=I Heard That Lonesome Whistle
EXTD=
EXTT0=
EXTT1=
EXTT2=
EXTT3=
EXTT4=
EXTT5=
EXTT6=
EXTT7=
EXTT8=
EXTT9=
EXTT10=
EXTT11=
EXTT12=
EXTT13=
EXTT14=
EXTT15=
EXTT16=
EXTT17=
PLAYORDER=
